Coordinates
version=1
nRows=13
nColumns=22
inDegrees=yes

Units are S.I. units (second, meters, Newtons, ...)
If the header above contains a line with 'inDegrees', this indicates whether rotational values are in degrees (yes) or radians (no).

endheader
time	pelvis_tilt	pelvis_list	pelvis_rotation	pelvis_tx	pelvis_ty	pelvis_tz	hip_flexion_r	hip_adduction_r	hip_rotation_r	knee_angle_r	ankle_angle_r	subtalar_angle_r	hip_flexion_l	hip_adduction_l	hip_rotation_l	knee_angle_l	ankle_angle_l	subtalar_angle_l	lumbar_extension	lumbar_bending	lumbar_rotation
      2.44000000	      2.13511530	      1.27961479	     42.99882788	     -0.58017762	      1.00225852	      0.26789941	      5.77065439	     -2.51054420	     -5.10029963	    -59.14456373	      4.98212922	      7.29830582	     14.25627918	      3.30716406	    -13.94272681	    -24.94412354	     11.08998633	    -11.41123543	    -14.42318297	     -0.50075125	      5.18000727
      2.45000000	      2.07747589	      1.29592539	     43.46442948	     -0.57669320	      1.00294860	      0.26251136	      7.06315821	     -2.68379983	     -4.94073897	    -60.06085376	      5.31999000	      6.73011233	     13.72329838	      3.56434999	    -13.55409748	    -24.59363846	     11.30644420	    -11.45945886	    -14.46014746	     -0.43155209	      4.72786449
      2.46000000	      2.03917800	      1.30143222	     43.95588054	     -0.57328934	      1.00366984	      0.25714162	      8.29742335	     -2.81806703	     -4.76169472	    -60.70191840	      5.70589669	      6.21520771	     13.17545345	      3.79402543	    -13.16129877	    -24.22414667	     11.51128818	    -11.49617934	    -14.50557882	     -0.33099103	      4.24336486
      2.47000000	      2.02573030	      1.31451950	     44.47260998	     -0.56997100	      1.00442050	      0.25181123	      9.45588847	     -2.92390787	     -4.56125388	    -61.08268037	      6.15909182	      5.85784751	     12.60615371	      4.00372294	    -12.76035984	    -23.85599709	     11.72253027	    -11.50209455	    -14.58273031	     -0.21537866	      3.73841482
      2.48000000	      1.98733908	      1.23421756	     45.00530313	     -0.56673546	      1.00505121	      0.24653258	     10.65978099	     -2.95855312	     -4.34620997	    -61.20792754	      6.53144071	      5.25876477	     12.12761788	      4.15868608	    -12.31358394	    -23.48031342	     11.89778217	    -11.54461400	    -14.56208256	     -0.04097658	      3.27302208
      2.49000000	      1.96956495	      1.17449595	     45.56986204	     -0.56359475	      1.00570798	      0.24128430	     11.77749576	     -2.98605546	     -4.12280571	    -61.09288933	      6.94636863	      4.88537842	     11.62172254	      4.31162707	    -11.83141949	    -23.10387996	     12.05098407	    -11.54402802	    -14.58365371	      0.13344190	      2.77941165
      2.50000000	      1.95126141	      1.08695525	     46.14199431	     -0.56049582	      1.00629228	      0.23610095	     12.86931776	     -2.97396836	     -3.87000903	    -60.75522738	      7.35888732	      4.50323045	     11.14880422	      4.42991262	    -11.35731805	    -22.74461774	     12.23483053	    -11.54662042	    -14.58262861	      0.32268577	      2.29906645
      2.51000000	      1.94249390	      0.99879373	     46.74100182	     -0.55743400	      1.00685771	      0.23091836	     13.89334402	     -2.95094171	     -3.62155721	    -60.19779442	      7.77995375	      4.25839483	     10.66739281	      4.53443982	    -10.86100827	    -22.37932750	     12.40470934	    -11.52623434	    -14.58536292	      0.51732026	      1.81290859
      2.52000000	      1.93073754	      0.89322570	     47.34230884	     -0.55441607	      1.00735128	      0.22577248	     14.88523712	     -2.90974933	     -3.35661325	    -59.44604223	      8.17763156	      4.03339693	     10.21158845	      4.61970099	    -10.35972060	    -22.02792631	     12.58185783	    -11.50332489	    -14.57451024	      0.72055214	      1.34204459
      2.53000000	      1.91491184	      0.77448844	     47.95363914	     -0.55140786	      1.00778153	      0.22066252	     15.83815242	     -2.85500494	     -3.08373254	    -58.51110537	      8.53360755	      3.82555411	      9.77537718	      4.68932084	     -9.83673522	    -21.68443259	     12.74965190	    -11.47551243	    -14.55002014	      0.91926011	      0.88512042
      2.54000000	      1.90005437	      0.65404641	     48.56692348	     -0.54838039	      1.00815953	      0.21557478	     16.74134359	     -2.78865109	     -2.79669499	    -57.41431515	      8.85518257	      3.64493162	      9.34476839	      4.74538290	     -9.31315841	    -21.35051102	     12.91900955	    -11.44045345	    -14.52181028	      1.10814967	      0.44587301
      2.55000000	      1.88963021	      0.53899172	     49.16211148	     -0.54530734	      1.00849848	      0.21051173	     17.58976821	     -2.71268424	     -2.48750160	    -56.17036456	      9.14190729	      3.50202529	      8.90826939	      4.78847273	     -8.80221286	    -21.02243250	     13.09314794	    -11.39443182	    -14.50066022	      1.28450878	      0.03663769
      2.56000000	      1.88500542	      0.43188059	     49.74349595	     -0.54216128	      1.00880111	      0.20545981	     18.37855074	     -2.62646509	     -2.16322665	    -54.79520924	      9.39665026	      3.39630393	      8.46139581	      4.81773101	     -8.30817421	    -20.69982979	     13.27722025	    -11.33502363	    -14.48544058	      1.44348540	     -0.33967199
